<svg xmlns="http://www.w3.org/2000/svg" viewBox="0 0 1200 630" role="img" aria-label="ACE Industries social preview">
  <defs>
    <linearGradient id="bg" x1="0" y1="0" x2="1" y2="1">
      <stop offset="0" stop-color="#02203f"/>
      <stop offset=".5" stop-color="#003366"/>
      <stop offset="1" stop-color="#0a4f93"/>
    </linearGradient>
    <linearGradient id="mark" x1="0" y1="0" x2="1" y2="1">
      <stop offset="0" stop-color="#0a4f93"/>
      <stop offset="1" stop-color="#012a54"/>
    </linearGradient>
    <pattern id="grid" width="48" height="48" patternUnits="userSpaceOnUse">
      <path d="M48 0H0V48" fill="none" stroke="#ffffff" stroke-opacity=".06" stroke-width="1"/>
    </pattern>
  </defs>
  <rect width="1200" height="630" fill="url(#bg)"/>
  <rect width="1200" height="630" fill="url(#grid)"/>
  <circle cx="1080" cy="90" r="320" fill="#ff6b00" opacity=".14"/>
  <circle cx="120" cy="600" r="260" fill="#008a4e" opacity=".12"/>

  <!-- Mark -->
  <g transform="translate(96,150)">
    <path d="M60 0 110 28v56L60 112 10 84V28z" fill="url(#mark)" stroke="#0a4f93" stroke-width="2"/>
    <path d="M60 14 96 34v44L60 98 24 78V34z" fill="none" stroke="#ffffff" stroke-opacity=".25" stroke-width="2"/>
    <path d="M66 26 42 62h15l-5 24 24-36H67z" fill="#ff6b00"/>
  </g>

  <!-- ISO badge -->
  <g transform="translate(96,300)">
    <rect width="220" height="42" rx="21" fill="#ffffff" fill-opacity=".1" stroke="#ffffff" stroke-opacity=".25"/>
    <circle cx="26" cy="21" r="6" fill="#008a4e"/>
    <text x="44" y="28" font-family="Inter, Arial, sans-serif" font-size="16" font-weight="600" fill="#ffffff">ISO 9001 CERTIFIED</text>
  </g>

  <!-- Headline -->
  <text x="96" y="430" font-family="Barlow, Arial, sans-serif" font-size="68" font-weight="700" fill="#ffffff">ACE INDUSTRIES</text>
  <text x="96" y="492" font-family="Barlow, Arial, sans-serif" font-size="34" font-weight="600" fill="#ff8a33">Power Distribution &amp; Metering Enclosures</text>
  <text x="98" y="540" font-family="Inter, Arial, sans-serif" font-size="22" fill="#c4d4e8">LT Distribution Boxes · Meter Boxes · Feeder Pillars · Protection Enclosures</text>
</svg>
